<?xml version="1.0" encoding="utf-8"?>
<!-- Uploaded to: SVG Repo, www.svgrepo.com, Generator: SVG Repo Mixer Tools -->
<svg width="20px" height="20px" viewBox="0 0 1024 1024" class="icon"  version="1.1" xmlns="http://www.w3.org/2000/svg"><path d="M512.002 512.002m-491.988 0a491.988 491.988 0 1 0 983.976 0 491.988 491.988 0 1 0-983.976 0Z" fill="#FC4C59" /><path d="M617.432 931.356c-271.716 0-491.986-220.268-491.986-491.986 0-145.168 62.886-275.632 162.888-365.684C129.054 155.124 20.014 320.828 20.014 512c0 271.716 220.268 491.986 491.986 491.986 126.548 0 241.924-47.796 329.098-126.298-67.102 34.31-143.124 53.668-223.666 53.668z" fill="#BC3B4A" /><path d="M803.118 812.228a20 20 0 0 1-17.504-10.28c-24.46-43.906-70.842-71.186-121.04-71.186-48.902 0-95.764 27.49-122.292 71.738-5.686 9.478-17.984 12.55-27.458 6.874-9.482-5.684-12.558-17.976-6.874-27.458 33.724-56.244 93.738-91.184 156.624-91.184 64.712 0 124.492 35.152 156.01 91.736 5.38 9.656 1.914 21.846-7.744 27.222a19.902 19.902 0 0 1-9.722 2.538z" fill="#7C152E" /><path d="M510.962 501.142m-54.592 0a54.592 54.592 0 1 0 109.184 0 54.592 54.592 0 1 0-109.184 0Z" fill="#FFFFFF" /><path d="M803.096 486.384m-54.592 0a54.592 54.592 0 1 0 109.184 0 54.592 54.592 0 1 0-109.184 0Z" fill="#FFFFFF" /><path d="M511.93 575.788c-9.098 0-18.218-1.628-27.002-4.9-19.336-7.202-34.71-21.504-43.29-40.266-8.654-18.926-8.814-41.578-0.442-62.15a83.574 83.574 0 0 1 19.97-29.214 2521.62 2521.62 0 0 1-10.898-5.626c-13.668-7.096-24.656-13.584-35.28-19.854-12.562-7.414-25.552-15.08-44.01-24.432-9.86-4.994-13.808-17.036-8.812-26.898 4.996-9.864 17.036-13.81 26.9-8.812 19.61 9.93 33.164 17.934 46.272 25.67 10.632 6.276 20.676 12.204 33.38 18.8a4036.06 4036.06 0 0 0 24.786 12.732c34.06 17.4 63.476 32.426 83.056 48.312a20.044 20.044 0 0 1 5.59 7.218c8.582 18.766 9.34 39.752 2.14 59.088-7.202 19.334-21.506 34.71-40.27 43.29-10.25 4.688-21.154 7.042-32.09 7.042z m-10.322-115.74c-10.578 4.172-18.86 12.51-23.338 23.516-4.23 10.396-4.316 21.482-0.23 30.412a36.986 36.986 0 0 0 20.858 19.404 37 37 0 0 0 28.466-1.03 36.982 36.982 0 0 0 19.404-20.86 36.946 36.946 0 0 0 0.574-24.338c-11.464-8.516-27.306-17.436-45.734-27.104zM805.718 562.164c-10.938 0-21.842-2.354-32.084-7.04-18.764-8.58-33.066-23.956-40.27-43.29-7.2-19.336-6.442-40.32 2.14-59.088a20.044 20.044 0 0 1 6.308-7.774c21.036-15.54 48.82-31.696 82.572-48.014 50.656-24.492 54.024-26.468 95.216-50.632l6.258-3.67c9.534-5.594 21.798-2.394 27.39 7.142 5.594 9.534 2.394 21.8-7.142 27.39l-6.252 3.666c-36.53 21.43-44.334 26.006-80.996 43.87a77.428 77.428 0 0 1 17.38 24.69c9.468 21.292 9.38 46.556-0.232 67.578-8.58 18.764-23.956 33.068-43.29 40.27a77.154 77.154 0 0 1-26.998 4.902zM770.2 473.846a36.918 36.918 0 0 0 0.676 24.018 36.99 36.99 0 0 0 19.404 20.86 37.008 37.008 0 0 0 28.466 1.03 36.99 36.99 0 0 0 20.86-19.404c4.838-10.582 4.86-23.866 0.056-34.67-2.978-6.698-9.172-15.424-21.93-20.512-18.502 9.808-34.412 19.406-47.532 28.678z" fill="#7C152E" /><path d="M940.912 232.29C887.956 151.25 813.6 87.066 725.88 46.682c-10.048-4.62-21.928-0.23-26.55 9.81-4.622 10.042-0.23 21.93 9.81 26.55 80.876 37.23 149.432 96.412 198.266 171.144C957.498 330.85 983.974 420 983.974 512c0 260.248-211.726 471.968-471.97 471.968S40.03 772.248 40.03 512.002 251.752 40.03 512 40.03c11.056 0 20.014-8.958 20.014-20.014S523.056 0 512 0C229.68 0 0 229.684 0 512.002S229.68 1024 512 1024s512-229.68 512-511.998c0-99.8-28.73-196.522-83.088-279.712z" fill="" /><path d="M507.946 781.92c-5.684 9.482-2.608 21.774 6.874 27.458 9.474 5.678 21.77 2.604 27.458-6.874 26.528-44.248 73.39-71.738 122.292-71.738 50.202 0 96.58 27.278 121.04 71.186a20 20 0 0 0 27.226 7.748c9.658-5.38 13.124-17.568 7.744-27.222-31.52-56.586-91.3-91.736-156.01-91.736-62.886-0.006-122.9 34.934-156.624 91.178zM468.714 398.106c-12.702-6.596-22.744-12.524-33.38-18.8-13.108-7.736-26.662-15.74-46.272-25.67-9.86-4.998-21.904-1.054-26.9 8.812-4.996 9.86-1.048 21.904 8.812 26.898 18.458 9.35 31.45 17.018 44.012 24.432 10.624 6.274 21.614 12.758 35.28 19.854 3.682 1.914 7.318 3.786 10.898 5.626a83.546 83.546 0 0 0-19.97 29.214c-8.372 20.572-8.212 43.224 0.442 62.15 8.58 18.764 23.954 33.064 43.29 40.266a77.236 77.236 0 0 0 27.002 4.9c10.938 0 21.842-2.354 32.084-7.04 18.764-8.58 33.068-23.956 40.27-43.29 7.2-19.336 6.442-40.32-2.14-59.088a19.966 19.966 0 0 0-5.59-7.218c-19.58-15.886-48.996-30.916-83.056-48.312-7.958-4.07-16.238-8.3-24.782-12.734z m78.632 89.042a36.92 36.92 0 0 1-0.574 24.338 36.99 36.99 0 0 1-19.404 20.86 37 37 0 0 1-28.466 1.03 36.98 36.98 0 0 1-20.858-19.404c-4.086-8.932-4.002-20.018 0.23-30.412 4.478-11.002 12.758-19.344 23.338-23.516 18.424 9.672 34.266 18.592 45.734 27.104zM946.108 377.192c9.534-5.59 12.732-17.854 7.142-27.39-5.59-9.538-17.854-12.732-27.39-7.142l-6.258 3.67c-41.192 24.164-44.558 26.14-95.216 50.632-33.752 16.318-61.538 32.474-82.572 48.014a19.994 19.994 0 0 0-6.308 7.774c-8.582 18.766-9.34 39.752-2.14 59.088 7.202 19.334 21.506 34.71 40.27 43.29 10.244 4.686 21.148 7.04 32.084 7.04 9.098 0 18.218-1.628 27.002-4.9 19.334-7.202 34.71-21.506 43.29-40.27 9.612-21.02 9.7-46.284 0.232-67.578a77.366 77.366 0 0 0-17.38-24.69c36.658-17.864 44.462-22.44 80.996-43.87l6.248-3.668z m-106.5 123.156a36.982 36.982 0 0 1-20.86 19.404 37.018 37.018 0 0 1-28.466-1.03 36.982 36.982 0 0 1-19.404-20.86 36.93 36.93 0 0 1-0.676-24.018c13.118-9.274 29.03-18.868 47.536-28.678 12.758 5.084 18.952 13.812 21.93 20.512 4.8 10.806 4.776 24.092-0.06 34.67z" fill="" /><path d="M646.262 40.03m-20.014 0a20.014 20.014 0 1 0 40.028 0 20.014 20.014 0 1 0-40.028 0Z" fill="" /></svg>