<?xml version="1.0" encoding="utf-8"?>
<!DOCTYPE svg PUBLIC "-//W3C//DTD SVG 1.1//EN" "http://www.w3.org/Graphics/SVG/1.1/DTD/svg11.dtd">
<!-- Uploaded to: SVG Repo, www.svgrepo.com, Generator: SVG Repo Mixer Tools -->
<svg fill="#151821" version="1.1" id="Layer_1" xmlns="http://www.w3.org/2000/svg" xmlns:xlink="http://www.w3.org/1999/xlink" 
	 width="800px" height="800px" viewBox="0 0 100 100" enable-background="new 0 0 100 100" xml:space="preserve">
<g fill="white"> <!-- Ajout de fill="white" pour le groupe <g> -->
	<path d="M39.292,51.5H68c1.104,0,2-0.896,2-2s-0.896-2-2-2H39.043l8.045-7.855c0.781-0.781,0.781-1.952,0-2.733
		s-2.048-0.734-2.828,0.047l-11.335,11.36c-0.375,0.375-0.586,0.896-0.586,1.426s0.211,1.045,0.586,1.42l11.336,11.337
		c0.391,0.391,0.902,0.587,1.414,0.587s1.024-0.194,1.415-0.585c0.781-0.781,0.781-2.237,0-3.018L39.292,51.5z"/>
	<path d="M84.446,49.756c0-18.448-15.009-33.457-33.457-33.457c-18.449,0-33.458,15.009-33.458,33.457
		c0,18.449,15.009,33.458,33.458,33.458C69.438,83.214,84.446,68.205,84.446,49.756z M21.531,49.756
		c0-16.242,13.215-29.457,29.458-29.457s29.457,13.215,29.457,29.457c0,16.243-13.214,29.458-29.457,29.458
		S21.531,65.999,21.531,49.756z"/>
</g>
</svg>