<!DOCTYPE svg PUBLIC "-//W3C//DTD SVG 1.1//EN" "http://www.w3.org/Graphics/SVG/1.1/DTD/svg11.dtd">
<!-- Uploaded to: SVG Repo, www.svgrepo.com, Transformed by: SVG Repo Mixer Tools -->
<svg fill="#151821" height="800px" width="800px" version="1.1" id="Layer_1" xmlns="http://www.w3.org/2000/svg" xmlns:xlink="http://www.w3.org/1999/xlink" viewBox="-51.2 -51.2 614.40 614.40" xml:space="preserve" stroke="#151821">
<g id="SVGRepo_bgCarrier" stroke-width="0" transform="translate(33.28,33.28), scale(0.87)">
<rect x="-51.2" y="-51.2" width="614.40" height="614.40" rx="307.2" fill="#ffffff" strokewidth="0"/>
</g>
<g id="SVGRepo_tracerCarrier" stroke-linecap="round" stroke-linejoin="round" stroke="#CCCCCC" stroke-width="2.048"/>
<g id="SVGRepo_iconCarrier"> <g> <g> <path d="M256,0C114.837,0,0,114.837,0,256s114.837,256,256,256s256-114.837,256-256S397.163,0,256,0z M377.749,228.416 L271.083,335.083c-4.16,4.16-9.621,6.251-15.083,6.251c-5.462,0-10.923-2.091-15.083-6.251L134.251,228.416 c-8.341-8.341-8.341-21.824,0-30.165s21.824-8.341,30.165,0L256,289.835l91.584-91.584c8.341-8.341,21.824-8.341,30.165,0 C386.091,206.592,386.091,220.075,377.749,228.416z"/> </g> </g> </g>
</svg>